<svg width="262" height="392" viewBox="0 0 262 392" fill="none" xmlns="http://www.w3.org/2000/svg">
<path d="M23.5 296.5L46.5 316.5" stroke="black" stroke-width="4"/>
<path d="M18.5 307L35 322" stroke="black" stroke-width="4"/>
<path d="M50.5 312L132 389.5" stroke="black" stroke-width="4"/>
<path d="M41.5 341.5L88.5 298L146.5 350L161.5 335.5" stroke="black" stroke-width="4"/>
<path d="M67.5 274.5L49 292.5" stroke="black" stroke-width="4"/>
<path d="M9 330.5L6.5 333.5" stroke="black" stroke-width="4"/>
<path d="M25.5 335L6 352.5" stroke="black" stroke-width="4"/>
<path d="M6 371.5L18.075 360M18.075 360L27 351.5L50 373L75 347.5L41.5 381L18.075 360Z" stroke="black" stroke-width="4"/>
<path d="M16 371.5L35 389.5" stroke="black" stroke-width="4"/>
<path d="M6.5 383L13 390" stroke="black" stroke-width="4"/>
<path d="M84.5 354L53.5 389.5" stroke="black" stroke-width="4"/>
<path d="M68.5 389.5L91 367.5L114.5 389.5" stroke="black" stroke-width="4"/>
<path d="M82 376.5L96.5 389.5" stroke="black" stroke-width="4"/>
<path d="M72.5 333L90 315.5L138 361" stroke="black" stroke-width="4"/>
<path d="M81.5 324L108 350" stroke="black" stroke-width="4"/>
<path d="M112 353.5L129.5 370" stroke="black" stroke-width="4"/>
<path d="M171 314.5L205.5 281.5" stroke="black" stroke-width="4"/>
<path d="M166 332L181.5 317" stroke="black" stroke-width="4"/>
<path d="M188 312L212.5 289" stroke="black" stroke-width="4"/>
<path d="M134.5 379L217 298" stroke="black" stroke-width="4"/>
<path d="M144.5 386.5L170.5 360.5L202 389.5" stroke="black" stroke-width="4"/>
<path d="M158 390L179 368" stroke="black" stroke-width="4"/>
<path d="M182 384.5L177.5 389.5" stroke="black" stroke-width="4"/>
<path d="M178.5 352L210 320.5M210 320.5L225.5 305L238 317L223 332.5L232.522 341.5M210 320.5L259.5 367L232.522 341.5M232.522 341.5L254.739 320.5M259.5 316L254.739 320.5M254.739 320.5L225.5 291.714M207 273.5L225.5 291.714M225.5 291.714L257.5 260L241 244L216.5 269L249 236L259.5 246.5" stroke="black" stroke-width="4"/>
<path d="M243.5 256L221.5 278" stroke="black" stroke-width="4"/>
<path d="M259.5 276.5L245.5 291.5L259.5 305.5" stroke="black" stroke-width="4"/>
<path d="M249.5 345L260 334.5" stroke="black" stroke-width="4"/>
<path d="M183 360L210.5 332" stroke="black" stroke-width="4"/>
<path d="M191 366.5L216.5 340.5" stroke="black" stroke-width="4"/>
<path d="M195.5 383.5L226 354L259.5 385.5" stroke="black" stroke-width="4"/>
<path d="M210 389.5L227.5 372.5L245.5 389.5" stroke="black" stroke-width="4"/>
<path d="M248 201.5L194 255.5L163.5 227L177.5 212" stroke="black" stroke-width="4"/>
<path d="M181 205L209.5 233.5" stroke="black" stroke-width="4"/>
<path d="M180 221L193.5 235.5" stroke="black" stroke-width="4"/>
<path d="M240.5 165.5L260 184" stroke="black" stroke-width="4"/>
<path d="M260 155L255 161.5L260 167.5" stroke="black" stroke-width="4"/>
<path d="M152.5 232L189 266" stroke="black" stroke-width="4"/>
<path d="M144.5 241.5L180.5 276" stroke="black" stroke-width="4"/>
<path d="M85.5 268L109.5 244.5L137.5 271L123.5 286" stroke="black" stroke-width="4"/>
<path d="M146.5 279.5L132.5 294.5" stroke="black" stroke-width="4"/>
<path d="M159 284.5L141.5 303" stroke="black" stroke-width="4"/>
<path d="M116.5 259.5L97 279.5" stroke="black" stroke-width="4"/>
<path d="M125 266L109.5 281.5L142 312.5" stroke="black" stroke-width="4"/>
<path d="M259.5 207L137 326.5L9.5 210.5" stroke="black" stroke-width="4"/>
<path d="M192 124.5L208.5 106.5" stroke="black" stroke-width="4"/>
<path d="M256 72.5L200 128" stroke="black" stroke-width="4"/>
<path d="M199 142.5L233 108.5L254.5 128" stroke="black" stroke-width="4"/>
<path d="M234.5 120.5L215 140" stroke="black" stroke-width="4"/>
<path d="M247 130L229.5 149" stroke="black" stroke-width="4"/>
<path d="M215 144.5L234.5 162.5L260 139" stroke="black" stroke-width="4"/>
<path d="M260 104L254.5 109.5L260 115.5" stroke="black" stroke-width="4"/>
<path d="M259.5 86.5L243 103.5" stroke="black" stroke-width="4"/>
<path d="M78.5 200.5L53 226" stroke="black" stroke-width="4"/>
<path d="M87.5 208L62 235" stroke="black" stroke-width="4"/>
<path d="M35 139.5L13.5 119.5L6 126" stroke="black" stroke-width="4"/>
<path d="M27 153L8.5 135" stroke="black" stroke-width="4"/>
<path d="M4 169L19 156" stroke="black" stroke-width="4"/>
<path d="M7.5 146L3.5 150.5" stroke="black" stroke-width="4"/>
<path d="M109 219L39.5 152" stroke="black" stroke-width="4"/>
<path d="M13.5 198.5L26.5 185L52 208.5L66 195.5L41 168.5" stroke="black" stroke-width="4"/>
<path d="M34 176.5L49.5 192" stroke="black" stroke-width="4"/>
<path d="M38.5 196.5L26 210.5" stroke="black" stroke-width="4"/>
<path d="M42 219.5L60 201" stroke="black" stroke-width="4"/>
<path d="M89 116L71.5 136" stroke="black" stroke-width="4"/>
<path d="M100.5 126.5L80 148.5" stroke="black" stroke-width="4"/>
<path d="M108.5 136L75.5 168.5L51.5 146" stroke="black" stroke-width="4"/>
<path d="M62.5 140.5L77.5 154" stroke="black" stroke-width="4"/>
<path d="M116 144.5L81.5 179.5" stroke="black" stroke-width="4"/>
<path d="M90 188L133 144.5L177.5 186.5" stroke="black" stroke-width="4"/>
<path d="M138 159.5L101.5 195.5L116.5 209" stroke="black" stroke-width="4"/>
<path d="M117.5 198L148.5 169" stroke="black" stroke-width="4"/>
<path d="M130 186.5L151 205L126 233" stroke="black" stroke-width="4"/>
<path d="M165.5 183.5L148 202" stroke="black" stroke-width="4"/>
<path d="M157 177L139.5 194.5" stroke="black" stroke-width="4"/>
<path d="M159 197.5C158.2 197.5 150.667 205.5 147 209.5" stroke="black" stroke-width="4"/>
<path d="M182 105L145.5 70" stroke="black" stroke-width="4"/>
<path d="M196.5 23.5L154.5 65.5" stroke="black" stroke-width="4"/>
<path d="M194.5 88L187 95.5L163.5 71.5L225.5 6.5L260 39.5" stroke="black" stroke-width="4"/>
<path d="M180 66L218 99" stroke="black" stroke-width="4"/>
<path d="M252 58.5L224 86.5L184 50.5" stroke="black" stroke-width="4"/>
<path d="M192 58L227 25L260.5 55.5" stroke="black" stroke-width="4"/>
<path d="M246 48.5L220.5 75.5" stroke="black" stroke-width="4"/>
<path d="M232 37.5L209.5 61.5" stroke="black" stroke-width="4"/>
<path d="M197 6L100 105" stroke="black" stroke-width="4"/>
<path d="M92 109L126.5 142" stroke="black" stroke-width="4"/>
<path d="M172.5 111.5L142 141.5L111 110.5L139.5 81.5L172.5 111.5Z" stroke="black" stroke-width="4"/>
<path d="M159.5 108L142 124L119.5 101.5" stroke="black" stroke-width="4"/>
<path d="M150.5 91.5L134.5 108" stroke="black" stroke-width="4"/>
<path d="M51.5 44L89 3L126.5 40.5L164.5 3" stroke="black" stroke-width="4"/>
<path d="M70 3L46 30.5L15 3" stroke="black" stroke-width="4"/>
<path d="M35.5 13.5L43.5 3.5" stroke="black" stroke-width="4"/>
<path d="M110 15.5L123.5 3.5L131 10L136 3.5" stroke="black" stroke-width="4"/>
<path d="M122 28.5L147.5 4" stroke="black" stroke-width="4"/>
<path d="M135.5 51L178.5 6.5" stroke="black" stroke-width="4"/>
<path d="M60.5 51.5L90.5 22.5L127.5 59" stroke="black" stroke-width="4"/>
<path d="M121 70L81.5 32" stroke="black" stroke-width="4"/>
<path d="M6.5 10.5L92.5 93.5L111.5 73" stroke="black" stroke-width="4"/>
<path d="M102 62.5L89.5 75.5" stroke="black" stroke-width="4"/>
<path d="M93.5 54L81 67" stroke="black" stroke-width="4"/>
<path d="M85 47.5L72.5 60.5" stroke="black" stroke-width="4"/>
<path d="M201 18L210 8" stroke="black" stroke-width="4"/>
<path d="M260 22.5L247 8.5" stroke="black" stroke-width="4"/>
<path d="M15 29L5 39" stroke="black" stroke-width="4"/>
<path d="M27 40.5L5.5 62" stroke="black" stroke-width="4"/>
<path d="M33 50.5L6 78" stroke="black" stroke-width="4"/>
<path d="M36 59.5L12.5 83.5" stroke="black" stroke-width="4"/>
<path d="M48 65L10 99.5L49 133" stroke="black" stroke-width="4"/>
<path d="M59 75L31.5 99.5L56.5 123.5" stroke="black" stroke-width="4"/>
<path d="M72 84L48.5 106.5" stroke="black" stroke-width="4"/>
<path d="M79.5 98.5L61.5 117" stroke="black" stroke-width="4"/>
<path d="M82.5 108L3 189L65.5 246.5L92.5 219.5L106 233.5L112 228.5L169.5 284" stroke="black" stroke-width="4"/>
<path d="M137 204L77.5 260" stroke="black" stroke-width="4"/>
<path d="M149.5 150.5L203.5 96" stroke="black" stroke-width="4"/>
<path d="M177.5 122L254 196.5" stroke="black" stroke-width="4"/>
<path d="M183 137L161.5 159.5" stroke="black" stroke-width="4"/>
<path d="M171.5 164.5L187 179" stroke="black" stroke-width="4"/>
<path d="M197 141.5L183 157L198.5 173.5L207.5 163.5L134 240.5" stroke="black" stroke-width="4"/>
<path d="M216 172L189 200" stroke="black" stroke-width="4"/>
<path d="M225 180.5L203 202" stroke="black" stroke-width="4"/>
<path d="M195 203L210.5 217L237.5 193" stroke="black" stroke-width="4"/>
<path d="M9 218.5L6 222.5" stroke="black" stroke-width="4"/>
<path d="M24 223.5L6 243" stroke="black" stroke-width="4"/>
<path d="M36.5 235L15 258.5L6 251.5" stroke="black" stroke-width="4"/>
<path d="M39 249L14 276" stroke="black" stroke-width="4"/>
<path d="M8.5 271.5L5.5 267.5" stroke="black" stroke-width="4"/>
<path d="M7 284.5L6 283" stroke="black" stroke-width="4"/>
<path d="M49.5 258L6 299.5" stroke="black" stroke-width="4"/>
<path d="M59.5 267.5L35.5 291L54 308.5L78 282L32 332.5L6 310.5L58.5 357" stroke="black" stroke-width="4"/>
</svg>
